<svg width="40" height="40" viewBox="0 0 40 40" fill="none" xmlns="http://www.w3.org/2000/svg">
<path d="M7.81885 17.619C7.81885 20.2476 9.95215 22.3809 12.5807 22.3809C13.5807 22.3809 14.514 22.0666 15.276 21.5428L15.2379 21.9046C15.2379 24.5332 17.3712 26.6665 19.9997 26.6665C22.6283 26.6665 24.7616 24.5332 24.7616 21.9046L24.7235 21.5428C25.4949 22.0761 26.4188 22.3809 27.4188 22.3809C30.0473 22.3809 32.1806 20.2476 32.1806 17.619C32.1806 15.7238 31.0663 14.0952 29.4568 13.3333C31.0568 12.5714 32.1806 10.9429 32.1806 9.04759C32.1806 6.41902 30.0473 4.28571 27.4188 4.28571C26.4188 4.28571 25.4855 4.6 24.7235 5.12384L24.7616 4.76196C24.7617 2.1333 22.6284 0 19.9998 0C17.3713 0 15.238 2.1333 15.238 4.76188L15.2761 5.12375C14.5046 4.59045 13.5808 4.28571 12.5808 4.28571C9.95224 4.28571 7.81894 6.41902 7.81894 9.04759C7.81894 10.9429 8.93322 12.5714 10.5428 13.3333C8.93313 14.0953 7.81885 15.7238 7.81885 17.619ZM19.9998 8.57143C22.6284 8.57143 24.7617 10.7047 24.7617 13.3333C24.7617 15.9619 22.6284 18.0953 19.9998 18.0953C17.3713 18.0953 15.238 15.962 15.238 13.3334C15.238 10.7048 17.3713 8.57143 19.9998 8.57143Z" fill="#CFDBEA"/>
<path d="M2.85693 22.8572C2.85693 32.3239 10.5331 40 19.9998 40C19.9998 30.5333 12.3236 22.8572 2.85693 22.8572Z" fill="#CFDBEA"/>
<path d="M20 40C29.4667 40 37.1429 32.3239 37.1429 22.8572C27.6762 22.8572 20 30.5333 20 40Z" fill="#CFDBEA"/>
</svg>
