<svg width="40" height="40" viewBox="0 0 40 40" fill="none" xmlns="http://www.w3.org/2000/svg">
<path d="M36.0937 27.5895C33.033 27.5895 30.5431 24.0682 30.5431 19.7398C30.5431 15.4114 33.033 11.89 36.0937 11.89C36.5813 11.89 37.0307 11.6266 37.2689 11.2011C37.507 10.7757 37.4967 10.2549 37.2418 9.83926L33.596 3.8942C33.3804 3.54269 33.0155 3.30916 32.606 3.26081C32.1963 3.21206 31.7874 3.35428 31.4956 3.64585C30.2277 4.91371 28.165 4.91344 26.8973 3.64585C26.2831 3.03186 25.945 2.21517 25.9448 1.34664C25.9447 0.602951 25.3417 0 24.5981 0H15.4015C14.6578 0 14.0548 0.602951 14.0547 1.34664C14.0546 2.21517 13.7163 3.03186 13.1023 3.64585C11.8347 4.91371 9.77169 4.91344 8.50398 3.64585C8.21213 3.35428 7.80244 3.21206 7.39356 3.26081C6.98401 3.30916 6.61917 3.54269 6.40355 3.8942L2.75783 9.83926C2.50288 10.2549 2.49251 10.7757 2.73076 11.2011C2.96887 11.6266 3.41829 11.89 3.90595 11.89C6.96663 11.89 9.45655 15.4114 9.45655 19.7398C9.45655 24.0682 6.96663 27.5895 3.90595 27.5895C3.4467 27.5895 3.0191 27.8235 2.77157 28.2103C2.52389 28.5971 2.49063 29.0836 2.68308 29.5005L4.98216 34.4825C5.2328 35.0256 5.8115 35.339 6.40287 35.2503C6.49836 35.2363 16.0063 33.8916 18.7154 39.2598C18.9423 39.7095 19.4011 39.995 19.9047 39.9999C19.909 39.9999 19.9133 39.9999 19.9178 39.9999C20.4163 39.9999 20.8748 39.7242 21.1082 39.283C24.0203 33.7793 33.5361 34.8599 33.6318 34.8715C34.1973 34.9406 34.7447 34.6463 34.9993 34.1368L37.2984 29.5384C37.5072 29.1209 37.4848 28.6251 37.2394 28.2281C36.994 27.8312 36.5605 27.5895 36.0937 27.5895ZM20.9425 31.2356C20.9425 31.7563 20.5204 32.1783 19.9998 32.1783C19.4791 32.1783 19.057 31.7563 19.057 31.2356V30.6295C19.057 30.1089 19.4791 29.6868 19.9998 29.6868C20.5204 29.6868 20.9425 30.1089 20.9425 30.6295V31.2356ZM20.9425 26.7215C20.9425 27.2421 20.5204 27.6642 19.9998 27.6642C19.4791 27.6642 19.057 27.2421 19.057 26.7215V25.5868C19.057 25.0662 19.4791 24.6441 19.9998 24.6441C20.5204 24.6441 20.9425 25.0662 20.9425 25.5868V26.7215ZM20.9425 21.6789C20.9425 22.1996 20.5204 22.6216 19.9998 22.6216C19.4791 22.6216 19.057 22.1996 19.057 21.6789V20.5442C19.057 20.0236 19.4791 19.6015 19.9998 19.6015C20.5204 19.6015 20.9425 20.0236 20.9425 20.5442V21.6789ZM20.9425 16.6362C20.9425 17.1568 20.5204 17.5789 19.9998 17.5789C19.4791 17.5789 19.057 17.1568 19.057 16.6362V15.5016C19.057 14.981 19.4791 14.5589 19.9998 14.5589C20.5204 14.5589 20.9425 14.981 20.9425 15.5016V16.6362ZM20.9425 11.5937C20.9425 12.1144 20.5204 12.5364 19.9998 12.5364C19.4791 12.5364 19.057 12.1144 19.057 11.5937V10.459C19.057 9.93839 19.4791 9.51631 19.9998 9.51631C20.5204 9.51631 20.9425 9.93839 20.9425 10.459V11.5937ZM20.9425 6.55111C20.9425 7.07178 20.5204 7.49386 19.9998 7.49386C19.4791 7.49386 19.057 7.07178 19.057 6.55111V5.94507C19.057 5.4244 19.4791 5.00232 19.9998 5.00232C20.5204 5.00232 20.9425 5.4244 20.9425 5.94507V6.55111Z" fill="#CFDBEA"/>
</svg>
