<svg width="40" height="40" viewBox="0 0 40 40" fill="none" xmlns="http://www.w3.org/2000/svg">
<path d="M22.0919 10.3804C19.3709 10.9872 20.2562 12.0472 16.9771 13.9152C15.5144 14.9776 14.1781 14.4069 13.1262 15.929C12.0744 17.4511 10.1864 19.3465 9.93887 21.1454C9.69144 22.9441 8.75988 22.0025 6.62535 23.8014C4.49082 25.6002 5.5848 25.4107 4.1823 26.4255C2.77988 27.4404 2.48145 29.6598 2.48145 29.6598H37.4659C37.4659 29.6598 37.8783 28.5067 36.3934 27.1231C34.9085 25.7393 34.0836 21.7729 32.7225 21.45C31.3614 21.127 29.7526 19.1438 29.4639 18.4058C29.1753 17.6678 29.0928 16.5147 27.5666 15.3617C26.0405 14.2086 26.1643 12.7326 25.5456 12.133C24.9269 11.5336 23.4336 10.0814 22.0919 10.3804Z" fill="#CFDBEA"/>
<path opacity="0.2" d="M37.4657 29.6597H35.0228C34.9048 29.2215 34.6181 28.6629 33.972 28.0605C32.4868 26.6768 31.6618 22.7105 30.3009 22.3871C28.94 22.0644 27.3314 20.0815 27.0423 19.3433C26.7541 18.605 26.6712 17.4519 25.1455 16.2988C23.6189 15.1457 23.7431 13.6699 23.1243 13.0707C22.5759 12.5386 21.3407 11.3394 20.1338 11.28C20.5518 10.9027 21.065 10.609 22.0916 10.38C23.4331 10.0816 24.9268 11.5332 25.5455 12.1332C26.1643 12.7324 26.04 14.2082 27.5666 15.3613C29.0924 16.5144 29.1753 17.6675 29.4635 18.4058C29.7525 19.1441 31.3611 21.1269 32.7221 21.4496C34.0838 21.773 34.9079 25.7393 36.3931 27.123C37.8783 28.5066 37.4657 29.6597 37.4657 29.6597Z" fill="#CFDBEA"/>
<path d="M19.9584 20.6573C19.8954 20.6573 19.8316 20.6421 19.7724 20.61C17.9803 19.637 16.4271 20.4099 16.3619 20.4433C16.1704 20.5411 15.935 20.4663 15.8363 20.2752C15.7375 20.084 15.8113 19.8494 16.0021 19.7499C16.0817 19.7084 17.9774 18.7465 20.1451 19.9233C20.3347 20.0262 20.405 20.2635 20.3021 20.453C20.2312 20.5834 20.097 20.6573 19.9584 20.6573Z" fill="#CFDBEA"/>
<path d="M23.7211 26.5586C23.6582 26.5586 23.5944 26.5433 23.5351 26.5112C21.7288 25.5305 20.1418 26.3358 20.126 26.3439C19.9347 26.4437 19.6988 26.3693 19.599 26.1781C19.4993 25.9869 19.5735 25.7508 19.7648 25.6512C19.8444 25.6097 21.7402 24.648 23.9079 25.8246C24.0975 25.9275 24.1677 26.1648 24.0648 26.3543C23.994 26.4847 23.8597 26.5586 23.7211 26.5586Z" fill="#CFDBEA"/>
<path d="M24.9722 16.3463C24.9092 16.3463 24.8454 16.3311 24.7861 16.2989C22.9798 15.3183 21.3927 16.1234 21.3769 16.1316C21.1857 16.2311 20.9497 16.1572 20.85 15.9658C20.7503 15.7745 20.8245 15.5386 21.0157 15.4389C21.0954 15.3973 22.9911 14.4354 25.1589 15.6123C25.3485 15.7152 25.4187 15.9524 25.3158 16.142C25.245 16.2724 25.1107 16.3463 24.9722 16.3463Z" fill="#CFDBEA"/>
<path d="M12.3661 27.0921C12.3031 27.0921 12.2393 27.0768 12.1801 27.0447C10.3881 26.0718 8.83485 26.8447 8.76962 26.8781C8.57798 26.976 8.34274 26.901 8.24399 26.71C8.14524 26.5188 8.21899 26.2842 8.40977 26.1846C8.48946 26.1432 10.3852 25.1814 12.5529 26.3581C12.7425 26.461 12.8127 26.6982 12.7098 26.8878C12.639 27.0182 12.5047 27.0921 12.3661 27.0921Z" fill="#CFDBEA"/>
<path d="M14.7111 24.2706C14.3224 24.2706 14.0063 23.9544 14.0063 23.5658C14.0063 23.1773 14.3225 22.8611 14.7111 22.8611C15.0997 22.8611 15.4159 23.1773 15.4159 23.5658C15.4159 23.9544 15.0997 24.2706 14.7111 24.2706ZM14.7111 23.4894C14.6689 23.4894 14.6346 23.5236 14.6346 23.5658C14.6346 23.6081 14.6689 23.6423 14.7111 23.6423C14.7533 23.6423 14.7876 23.6081 14.7876 23.5658C14.7876 23.5236 14.7532 23.4894 14.7111 23.4894Z" fill="#CFDBEA"/>
<path d="M23.7219 21.6925C23.3332 21.6925 23.0171 21.3763 23.0171 20.9877C23.0171 20.5991 23.3333 20.283 23.7219 20.283C24.1104 20.283 24.4266 20.5991 24.4266 20.9877C24.4266 21.3763 24.1104 21.6925 23.7219 21.6925ZM23.7219 20.9112C23.6797 20.9112 23.6454 20.9455 23.6454 20.9877C23.6454 21.03 23.6797 21.0642 23.7219 21.0642C23.764 21.0642 23.7983 21.03 23.7983 20.9877C23.7983 20.9455 23.764 20.9112 23.7219 20.9112Z" fill="#CFDBEA"/>
<path d="M18.3849 16.9745C17.9963 16.9745 17.6802 16.6583 17.6802 16.2697C17.6802 15.8811 17.9963 15.5649 18.3849 15.5649C18.7735 15.5649 19.0897 15.8811 19.0897 16.2697C19.0897 16.6583 18.7735 16.9745 18.3849 16.9745ZM18.3849 16.1932C18.3428 16.1932 18.3085 16.2275 18.3085 16.2697C18.3085 16.3119 18.3428 16.3462 18.3849 16.3462C18.4271 16.3462 18.4614 16.3119 18.4614 16.2697C18.4614 16.2275 18.4271 16.1932 18.3849 16.1932Z" fill="#CFDBEA"/>
<path d="M30.1003 24.2706C29.7116 24.2706 29.3955 23.9544 29.3955 23.5658C29.3955 23.1773 29.7117 22.8611 30.1003 22.8611C30.4889 22.8611 30.805 23.1773 30.805 23.5658C30.805 23.9544 30.4889 24.2706 30.1003 24.2706ZM30.1003 23.4894C30.0581 23.4894 30.0238 23.5236 30.0238 23.5658C30.0238 23.6081 30.0581 23.6423 30.1003 23.6423C30.1425 23.6423 30.1768 23.6081 30.1768 23.5658C30.1768 23.5236 30.1425 23.4894 30.1003 23.4894Z" fill="#CFDBEA"/>
</svg>
