<svg width="40" height="40" viewBox="0 0 40 40" fill="none" xmlns="http://www.w3.org/2000/svg">
<path d="M32.5113 12.0178C30.2491 13.0445 27.6624 13.16 25.3246 12.32C22.9291 11.4578 20.9779 9.67112 19.8979 7.3689C22.1602 6.34224 24.7468 6.22668 27.0846 7.06668C29.4802 7.9289 31.4313 9.71557 32.5113 12.0178Z" fill="#CFDBEA"/>
<path d="M32.3288 17.4756C32.3288 19.5867 30.8977 21.4445 28.8888 22.0045C28.0088 20.4712 26.4755 19.3645 24.6755 19.0534C24.8133 18.5423 24.8888 18.0134 24.8888 17.4756C24.8888 16.36 24.5777 15.32 24.0488 14.4223C24.3155 14.1112 24.6222 13.8356 24.9644 13.6045C25.5199 13.7956 26.0888 13.9467 26.6666 14.0489C26.6933 14.3778 26.9599 14.6445 27.3022 14.6578C27.3155 14.6578 28.791 14.72 29.5688 15.5734C29.9244 15.9556 30.0799 16.4489 30.0444 17.0756C30.0266 17.4445 30.3066 17.7556 30.6755 17.7778H30.711C31.0622 17.7778 31.3555 17.5023 31.3777 17.1467C31.431 16.1556 31.1511 15.32 30.5466 14.6667C30.3511 14.4534 30.1333 14.2756 29.9022 14.1245C30.191 14.0889 30.4799 14.0356 30.7644 13.9778C31.7555 14.8712 32.3288 16.1378 32.3288 17.4756Z" fill="#CFDBEA"/>
<path d="M25.3156 31.4889C25.3156 34.08 23.2045 36.1911 20.6134 36.1911C18.0178 36.1911 15.9111 34.08 15.9111 31.4889C15.9111 31.32 15.92 31.1511 15.9378 30.9822C16.1778 31.0134 16.4178 31.0311 16.6667 31.0311C19.2489 31.0311 21.4534 29.3956 22.3111 27.1067C24.1022 27.8 25.3156 29.5378 25.3156 31.4889Z" fill="#CFDBEA"/>
<path d="M28.3555 24.9957C28.3555 26.7246 27.5066 28.2135 26.1155 29.0179C25.4488 27.5423 24.2088 26.3646 22.64 25.8046C22.6755 25.5379 22.7022 25.2712 22.7022 24.9957C22.7022 23.4623 22.1244 22.0668 21.1777 21.0001C21.92 20.5423 22.7733 20.2935 23.6533 20.2935C26.2444 20.2935 28.3555 22.4046 28.3555 24.9957Z" fill="#CFDBEA"/>
<path d="M16.6666 20.2935C14.0755 20.2935 11.9644 22.4046 11.9644 24.9957C11.9644 27.5868 14.0755 29.6979 16.6666 29.6979C19.2577 29.6979 21.3688 27.5868 21.3688 24.9957C21.3688 22.4046 19.2577 20.2935 16.6666 20.2935ZM19.6844 26.6535C19.5732 26.9068 19.3288 27.0579 19.071 27.0579C18.9821 27.0579 18.8932 27.0401 18.8088 27.0046C18.471 26.8579 18.3155 26.4668 18.4577 26.129C19.4799 23.7423 17.6399 22.7779 17.4266 22.6757C17.0977 22.5157 16.9555 22.1201 17.111 21.7868C17.2666 21.4579 17.6577 21.3112 17.991 21.4668C19.1199 21.9912 20.9288 23.7468 19.6844 26.6535Z" fill="#CFDBEA"/>
<path d="M13.8709 14.0712C13.0043 13.2401 11.8487 12.7734 10.6309 12.7734C8.03982 12.7734 5.92871 14.8845 5.92871 17.4757C5.92871 20.0668 8.03982 22.1779 10.6309 22.1779C10.8754 22.1779 11.1198 22.1601 11.3598 22.1201C11.8354 21.2445 12.5287 20.4979 13.3598 19.9512C13.0043 19.1734 12.8176 18.3423 12.8176 17.4757C12.8176 16.2134 13.2087 15.0401 13.8709 14.0712ZM9.44427 15.009C9.35982 15.0623 7.6176 16.2179 8.36427 18.0001C8.50649 18.3379 8.35093 18.729 8.00871 18.8712C7.92427 18.9068 7.83538 18.9246 7.75093 18.9246C7.49316 18.9246 7.24427 18.7734 7.1376 18.5157C6.18204 16.249 7.75982 14.4934 8.72871 13.8801C9.03982 13.6845 9.45316 13.7779 9.64871 14.089C9.84427 14.4001 9.75093 14.809 9.44427 15.009Z" fill="#CFDBEA"/>
<path d="M18.8535 12.7733C18.6202 12.7733 18.3927 12.7959 18.1682 12.8288C18.6807 11.3599 19.422 8.82349 19.6327 5.93905C19.6598 5.57194 19.3833 5.25238 19.0162 5.22572C18.6553 5.1986 18.3295 5.4746 18.3029 5.84216C18.0402 9.43727 16.874 12.5462 16.5335 13.3902C15.1122 14.2004 14.1509 15.727 14.1509 17.4759C14.1509 18.1337 14.2887 18.7604 14.5464 19.3515C15.2087 19.1026 15.9198 18.9604 16.6664 18.9604C17.9687 18.9604 19.1687 19.3782 20.1553 20.0804C21.0798 19.4226 22.1731 19.0404 23.3064 18.9737C23.4669 18.4933 23.5558 17.991 23.5558 17.4755C23.5558 14.8844 21.4447 12.7733 18.8535 12.7733Z" fill="#CFDBEA"/>
</svg>
