<svg width="40" height="40" viewBox="0 0 40 40" fill="none" xmlns="http://www.w3.org/2000/svg">
<g clip-path="url(#clip0_2_1179)">
<path d="M39.8433 5.2765C40.0523 5.45166 40.0523 5.77353 39.8433 5.94869C38.6254 6.96924 34.651 9.96291 29.936 9.96291C25.0882 9.96291 22.4801 6.79814 21.8178 5.86721C21.7092 5.71439 21.7092 5.51072 21.8178 5.35791C22.4801 4.42697 25.0882 1.26221 29.936 1.26221C34.651 1.26229 38.6254 4.25596 39.8433 5.2765Z" fill="#CFDBEA"/>
<path d="M39.8434 5.27646C39.2631 4.79014 38.056 3.85615 36.4421 3.01123C34.3779 4.58201 29.9886 7.37959 24.9064 7.37959C24.2508 7.37959 23.6282 7.33295 23.0381 7.24842C24.3523 8.48217 26.6201 9.96287 29.9361 9.96287C34.6511 9.96287 38.6255 6.9692 39.8434 5.94865C40.0525 5.7735 40.0525 5.45162 39.8434 5.27646Z" fill="#CFDBEA"/>
<path d="M21.8179 5.86716C22.4802 6.7981 25.0883 9.96286 29.9361 9.96286C34.6511 9.96286 38.6255 6.96919 39.8434 5.94864C39.9479 5.86106 40.0002 5.73677 40.0002 5.61255H21.7363C21.7363 5.70161 21.7635 5.79075 21.8179 5.86716Z" fill="#CFDBEA"/>
<path d="M32.1778 5.61255C30.1129 6.58903 27.6076 7.37958 24.9064 7.37958C24.2508 7.37958 23.6282 7.33294 23.0381 7.24841C24.3523 8.48208 26.6201 9.96286 29.9361 9.96286C34.6511 9.96286 38.6255 6.96919 39.8434 5.94864C39.9479 5.86106 40.0002 5.73677 40.0002 5.61255H32.1778Z" fill="#CFDBEA"/>
<path d="M33.2791 17.807C31.1814 17.3188 29.0333 18.3772 28.1288 20.3319C27.7191 21.2172 27.0327 21.9839 26.1112 22.4882C25.1893 22.9929 24.1731 23.1579 23.2062 23.0256C21.1127 22.7391 19.0734 23.9189 18.3421 25.9012C17.5481 28.0532 17.6635 30.4475 19.0235 32.9319C22.002 38.3732 30.2907 40.5598 34.6864 38.1536C39.0821 35.7475 41.7069 27.587 38.7283 22.1457C37.3898 19.7007 35.4754 18.3181 33.2791 17.807Z" fill="#CFDBEA"/>
<path d="M38.7283 22.1458C37.3899 19.7008 35.4754 18.3182 33.2792 17.8071C32.8351 17.7037 32.389 17.6705 31.9527 17.6995C32.7301 18.3773 33.4227 19.2407 34.0058 20.3059C36.9844 25.7473 34.3596 33.9077 29.964 36.3139C28.119 37.3238 25.5883 37.5243 23.0522 37.015C26.7687 39.2875 31.6539 39.8138 34.6864 38.1538C39.0821 35.7476 41.7069 27.5872 38.7283 22.1458Z" fill="#CFDBEA"/>
<path d="M27.1017 24.1514C26.9519 24.1514 26.802 24.0967 26.684 23.9864L25.9244 23.2758C21.6183 19.2474 19.6294 13.3703 20.6043 7.55479L21.2231 3.86245C21.279 3.5294 21.5944 3.30463 21.9274 3.36026C22.2606 3.41612 22.4854 3.73143 22.4296 4.06456L21.8108 7.75698C20.9039 13.1673 22.7541 18.6347 26.7602 22.3825L27.5198 23.0931C27.7664 23.3238 27.7793 23.7109 27.5485 23.9576C27.4281 24.0863 27.2651 24.1514 27.1017 24.1514Z" fill="#CFDBEA"/>
<path d="M19.7673 20.4802C18.1616 19.0448 15.7691 18.9417 14.037 20.222C13.2526 20.8019 12.2823 21.1448 11.2319 21.1448C10.1809 21.1448 9.21031 20.8016 8.42562 20.2212C6.72687 18.9648 4.37156 19.0205 2.77813 20.4082C1.04836 21.9146 0 24.0703 0 26.9026C0 33.1058 6.22078 39.0037 11.2319 39.0037C16.243 39.0037 22.4638 33.1058 22.4638 26.9026C22.4638 24.1151 21.4484 21.9831 19.7673 20.4802Z" fill="#CFDBEA"/>
<path d="M19.7672 20.4802C19.308 20.0697 18.7845 19.7688 18.2306 19.5774C18.7559 20.6957 19.0453 21.9965 19.0453 23.4841C19.0453 29.6873 12.8246 35.5852 7.81342 35.5852C6.02498 35.5852 4.08256 34.8336 2.32373 33.5853C4.59146 36.7599 8.14139 39.0036 11.2319 39.0036C16.243 39.0036 22.4637 33.1057 22.4637 26.9025C22.4637 24.1151 21.4483 21.9831 19.7672 20.4802Z" fill="#CFDBEA"/>
<path d="M11.2513 23.8152C10.9135 23.8152 10.6396 23.5414 10.6396 23.2036V20.2069C10.6396 14.0931 13.6807 8.42415 18.7746 5.04274L22.0129 2.89313C22.2943 2.70633 22.6739 2.78297 22.8608 3.06454C23.0476 3.34594 22.9709 3.72555 22.6894 3.91243L19.4511 6.06204C14.6996 9.2161 11.863 14.5039 11.863 20.2069V23.2036C11.863 23.5414 11.5891 23.8152 11.2513 23.8152Z" fill="#CFDBEA"/>
<path d="M21.9942 4.36201L21.5705 3.70029C21.2925 3.26607 21.4202 2.68326 21.8544 2.40522L24.0138 1.0224C24.448 0.744356 25.0308 0.87209 25.3089 1.30631L25.7326 1.96803C26.0107 2.40225 25.8829 2.98506 25.4487 3.26311L23.2893 4.64592C22.8551 4.92404 22.2723 4.79623 21.9942 4.36201Z" fill="#CFDBEA"/>
<path d="M25.5745 1.72119L23.6021 2.98424C23.1679 3.26228 22.5851 3.13455 22.3071 2.70033L22.0414 2.28549L21.8544 2.40525C21.4202 2.6833 21.2925 3.26611 21.5705 3.70033L21.9942 4.36205C22.2723 4.79627 22.8551 4.92408 23.2893 4.64596L25.4487 3.26322C25.8829 2.98518 26.0107 2.40236 25.7326 1.96814L25.5745 1.72119Z" fill="#CFDBEA"/>
</g>
<defs>
<clipPath id="clip0_2_1179">
<rect width="40" height="40" fill="white"/>
</clipPath>
</defs>
</svg>
