<svg width="40" height="40" viewBox="0 0 40 40" fill="none" xmlns="http://www.w3.org/2000/svg">
<path d="M7.93945 8.82153H14.4173V15.2993H7.93945V8.82153Z" fill="#CFDBEA"/>
<path d="M16.7612 8.82153H23.2391V15.2993H16.7612V8.82153Z" fill="#CFDBEA"/>
<path d="M7.93945 17.6433H14.4173V24.1212H7.93945V17.6433Z" fill="#CFDBEA"/>
<path d="M16.7612 17.6433H23.2391V24.1212H16.7612V17.6433Z" fill="#CFDBEA"/>
<path d="M25.5825 8.82153H32.0604V15.2993H25.5825V8.82153Z" fill="#CFDBEA"/>
<path d="M14.4173 0H9.11133C8.46414 0 7.93945 0.524688 7.93945 1.17188V6.47789H14.4173V0Z" fill="#CFDBEA"/>
<path d="M16.7612 0H23.2391V6.47789H16.7612V0Z" fill="#CFDBEA"/>
<path d="M25.5825 6.47789H32.0604V1.17188C32.0604 0.524688 31.5357 0 30.8885 0H25.5825V6.47789Z" fill="#CFDBEA"/>
<path d="M25.5825 17.6433H32.0604V24.1212H25.5825V17.6433Z" fill="#CFDBEA"/>
<path d="M16.9543 33.1079C14.6141 29.8095 12.5689 26.9276 7.93945 26.5156V38.8282C7.93945 39.4754 8.46414 40.0001 9.11133 40.0001H23.5894C20.5495 38.1749 18.6866 35.5496 16.9543 33.1079Z" fill="#CFDBEA"/>
<path d="M14.2402 26.4648C16.1403 27.9109 17.5149 29.8476 18.8659 31.7517C21.6349 35.6547 24.263 39.3583 31.2982 39.925C31.7431 39.7588 32.0605 39.3311 32.0605 38.8281V26.4648H14.2402Z" fill="#CFDBEA"/>
</svg>
