<svg width="40" height="40" viewBox="0 0 40 40" fill="none" xmlns="http://www.w3.org/2000/svg">
<g clip-path="url(#clip0_2_1267)">
<path d="M19.2499 34.1666V24C19.2499 23.1667 18.2499 22.8333 17.7499 23.3333L10.5833 30.5C10.2499 30.8334 10.2499 31.5 10.6666 31.8333C12.8332 33.5833 15.4999 34.6667 18.3333 34.9999C18.7499 35.1666 19.2499 34.6667 19.2499 34.1666Z" fill="#CFDBEA"/>
<path d="M8.08353 10.5832C6.33352 12.7499 5.25016 15.4165 4.91687 18.2499C4.83353 18.7499 5.25023 19.2499 5.83355 19.2499H16.0002C16.8335 19.2499 17.1669 18.2499 16.6668 17.7499L9.50017 10.5833C9.08354 10.1666 8.41689 10.1666 8.08353 10.5832Z" fill="#CFDBEA"/>
<path d="M4.91687 21.75C5.25024 24.6666 6.41686 27.2499 8.08353 29.4167C8.41689 29.8333 9.0002 29.8333 9.41683 29.5L16.5835 22.3334C17.1668 21.75 16.7502 20.8334 15.9168 20.8334H5.83355C5.3335 20.75 4.83353 21.25 4.91687 21.75Z" fill="#CFDBEA"/>
<path d="M35.0835 18.25C34.7502 15.3333 33.5836 12.75 31.9169 10.5833C31.5835 10.1667 31.0002 10.1667 30.5836 10.4999L23.4169 17.6666C22.8336 18.2499 23.2503 19.1666 24.0836 19.1666H34.2503C34.6669 19.2499 35.1669 18.7499 35.0835 18.25Z" fill="#CFDBEA"/>
<path d="M19.2498 16V5.83342C19.2498 5.33346 18.8331 4.91675 18.2497 4.91675C15.3331 5.25011 12.7498 6.41674 10.583 8.08341C10.1664 8.41677 10.1664 9.00008 10.4997 9.41671L17.6663 16.5834C18.2498 17.1667 19.2498 16.8334 19.2498 16Z" fill="#CFDBEA"/>
<path d="M20.75 5.83326V15.9999C20.75 16.8332 21.75 17.1666 22.25 16.6665L29.4166 9.49989C29.75 9.16652 29.75 8.49987 29.3333 8.16658C27.1667 6.41657 24.5 5.33321 21.6666 4.99993C21.25 4.83324 20.75 5.24995 20.75 5.83326Z" fill="#CFDBEA"/>
<path d="M31.9169 29.4167C33.6669 27.2501 34.7502 24.5834 35.0835 21.75C35.1669 21.25 34.7502 20.75 34.1669 20.75H24.0002C23.1669 20.75 22.8335 21.75 23.3336 22.25L30.5002 29.4166C30.9169 29.8333 31.5835 29.8333 31.9169 29.4167Z" fill="#CFDBEA"/>
<path d="M21.75 35.0833C24.6666 34.7499 27.2499 33.5833 29.4167 31.9166C29.8333 31.5833 29.8333 31 29.5 30.5833L22.3334 23.4167C21.75 22.8334 20.8334 23.25 20.8334 24.0833V34.25C20.75 34.6667 21.25 35.1666 21.75 35.0833Z" fill="#CFDBEA"/>
<path d="M20 0C8.91666 0 0 8.91666 0 20C0 20.2501 0 20.5 0 20.75C0.416628 31.4167 9.16669 40 20 40C30.8334 40 39.5834 31.4167 40 20.75C40 20.5 40 20.2501 40 20C40 8.91666 31.0833 0 20 0ZM20 37.3333C10.6667 37.3333 3.0834 29.9166 2.66669 20.75C2.66669 20.4999 2.66669 20.25 2.66669 20C2.66669 10.4166 10.4167 2.66661 20 2.66661C29.5834 2.66661 37.3334 10.4166 37.3334 20C37.3334 20.25 37.3334 20.4999 37.3334 20.75C36.9167 30 29.3333 37.3333 20 37.3333Z" fill="#CFDBEA"/>
</g>
<defs>
<clipPath id="clip0_2_1267">
<rect width="40" height="40" fill="white"/>
</clipPath>
</defs>
</svg>
