<svg width="40" height="40" viewBox="0 0 40 40" fill="none" xmlns="http://www.w3.org/2000/svg">
<path d="M37.2914 16.0609C27.8359 19.0041 24.6478 25.8563 23.5725 30.185C23.425 27.1007 23.2727 19.4189 24.7768 11.3725C24.7858 11.325 24.7787 11.2758 24.7568 11.2326C24.7349 11.1895 24.6993 11.1548 24.6556 11.134C24.6119 11.1132 24.5626 11.1074 24.5152 11.1176C24.4679 11.1277 24.4253 11.1533 24.394 11.1902C22.8437 13.0335 18.4339 19.0444 18.1076 28.1179C18.1076 28.1179 15.5203 10.8424 4.15768 5.63411C4.11503 5.61451 4.06723 5.60907 4.02126 5.61857C3.9753 5.62808 3.93358 5.65204 3.9022 5.68695C3.87082 5.72187 3.85144 5.7659 3.84687 5.81261C3.8423 5.85933 3.8528 5.90628 3.87682 5.94661C5.47839 8.60645 11.8521 19.6979 11.9215 27.8796C11.9215 27.8796 7.58471 23.6898 2.66167 23.2358C2.61703 23.2319 2.57226 23.2416 2.53333 23.2638C2.4944 23.286 2.46319 23.3196 2.44386 23.36C2.42454 23.4004 2.41803 23.4458 2.4252 23.49C2.43238 23.5342 2.4529 23.5752 2.48401 23.6075C4.00143 25.1771 9.3719 30.8575 9.78018 33.0347L9.87214 33.5863H6.65339C6.55185 33.5846 6.45328 33.6205 6.3766 33.6871C6.29993 33.7537 6.25056 33.8462 6.23799 33.947C6.23252 34.0026 6.23875 34.0587 6.25628 34.1118C6.27382 34.1649 6.30226 34.2137 6.3398 34.255C6.37733 34.2964 6.42311 34.3295 6.4742 34.3522C6.52529 34.3748 6.58055 34.3865 6.63643 34.3865H33.229C33.3306 34.3881 33.4291 34.3522 33.5058 34.2856C33.5825 34.219 33.6318 34.1264 33.6444 34.0257C33.6499 33.9701 33.6436 33.9139 33.6261 33.8609C33.6086 33.8078 33.5801 33.759 33.5426 33.7176C33.5051 33.6763 33.4593 33.6432 33.4082 33.6206C33.3571 33.5979 33.3018 33.5863 33.246 33.5863H28.6281C29.7663 25.3025 35.6437 18.4297 37.5181 16.42C37.5509 16.3845 37.5711 16.3391 37.5755 16.2909C37.5799 16.2428 37.5683 16.1945 37.5425 16.1535C37.5167 16.1126 37.4781 16.0814 37.4327 16.0646C37.3873 16.0479 37.3376 16.0466 37.2914 16.0609Z" fill="#CFDBEA"/>
</svg>
