<svg width="40" height="40" viewBox="0 0 40 40" fill="none" xmlns="http://www.w3.org/2000/svg">
<path d="M18.5588 29.4822L16.4902 37.0352L27.1437 32.7738L25.0314 20.0999L18.5588 29.4822Z" fill="#CFDBEA"/>
<path d="M19.335 6.60259L26.1406 15.6767L40 11.057L31.4604 2.51735C31.1289 2.18587 30.6318 2.08384 30.1966 2.2579L19.335 6.60259Z" fill="#CFDBEA"/>
<path d="M6.69148 17.3718L0.847656 26.2554L10.25 24.1643L6.69148 17.3718Z" fill="#CFDBEA"/>
<path d="M17.2016 27.3266L24.2688 17.0826L17.6823 8.30054L15.7866 12.092C15.6646 12.3359 15.4614 12.5295 15.212 12.6395L8.42432 15.6336L12.9072 24.1905L17.2016 27.3266Z" fill="#CFDBEA"/>
<path d="M0 28.8424L4.16773 37.1778C4.36625 37.5749 4.77203 37.8256 5.21586 37.8256H13.8462L16.1398 29.4504L11.7338 26.2327L0 28.8424Z" fill="#CFDBEA"/>
<path d="M29.158 30.6199L35.6816 21.9217L39.856 13.5728L27.0293 17.8483L29.158 30.6199Z" fill="#CFDBEA"/>
</svg>
