<svg width="40" height="40" viewBox="0 0 40 40" fill="none" xmlns="http://www.w3.org/2000/svg">
<path d="M18.8342 24.3408H10.4722C10.7847 27.5442 11.4425 30.7425 12.3995 33.7017H18.8342V24.3408Z" fill="#CFDBEA"/>
<path d="M21.1743 24.3408V33.7017H27.6206C28.5764 30.7438 29.2336 27.5454 29.5459 24.3408H21.1743Z" fill="#CFDBEA"/>
<path d="M8.03519 39.6928C8.13855 39.8824 8.33644 40.0001 8.55176 40.0001H31.5134C31.7298 40.0001 31.9281 39.8816 32.031 39.6909C32.6382 38.5652 33.1974 37.3418 33.7025 36.0415C32.9129 36.0415 7.12887 36.0415 6.34082 36.0415C6.85457 37.3444 7.42176 38.5678 8.03519 39.6928Z" fill="#CFDBEA"/>
<path d="M8.12221 24.3408H3.57666C3.88939 27.5446 4.54729 30.7434 5.50393 33.7017H9.9476C9.03979 30.7178 8.41775 27.528 8.12221 24.3408Z" fill="#CFDBEA"/>
<path d="M30.0723 33.7017H34.5269C35.473 30.7318 36.1209 27.5339 36.4257 24.3408H31.8957C31.6003 27.5291 30.9789 30.7189 30.0723 33.7017Z" fill="#CFDBEA"/>
<path d="M32.0308 0.309453C31.9279 0.118594 31.7295 0 31.5129 0H8.54873C8.33381 0 8.136 0.1175 8.03248 0.306719C7.39584 1.47016 6.82506 2.71875 6.32764 3.98484H33.7131C33.2232 2.72609 32.6631 1.4832 32.0308 0.309453Z" fill="#CFDBEA"/>
<path d="M9.93682 6.32446H5.49275C4.54322 9.26634 3.88924 12.4614 3.57666 15.6766H8.12236C8.41807 12.4789 9.03643 9.29243 9.93682 6.32446Z" fill="#CFDBEA"/>
<path d="M36.589 18.0164C35.4392 18.0164 6.14564 18.0164 3.41236 18.0164C3.35104 19.4344 3.35682 20.7758 3.41361 22.0012H36.587C36.6467 20.611 36.6439 19.2875 36.589 18.0164Z" fill="#CFDBEA"/>
<path d="M18.8344 15.6766V6.32446H12.3883C11.4389 9.26579 10.7848 12.4611 10.4722 15.6766H18.8344Z" fill="#CFDBEA"/>
<path d="M21.1743 15.6766H29.545C29.2333 12.4838 28.5788 9.28876 27.6274 6.32446H21.1743V15.6766Z" fill="#CFDBEA"/>
<path d="M31.8947 15.6766H36.4322C36.1212 12.4649 35.4747 9.26978 34.5381 6.32446H30.0776C30.9806 9.31243 31.5997 12.4991 31.8947 15.6766Z" fill="#CFDBEA"/>
</svg>
