<svg width="40" height="40" viewBox="0 0 40 40" fill="none" xmlns="http://www.w3.org/2000/svg">
<g clip-path="url(#clip0_2_1331)">
<path d="M39.2737 37.7439C38.5583 36.5759 37.9088 33.0929 36.6762 30.5361C33.9996 33.1786 30.3252 34.8124 26.2758 34.8124C25.9568 34.8124 25.6386 34.8008 25.3213 34.7804C24.4669 35.759 23.4853 36.6444 22.3794 37.4356C28.1406 39.9498 35.0728 39.9999 38.7971 39.9999C39.4307 39.9999 39.9729 39.5102 39.9988 38.8771C40.0196 38.3668 39.714 37.9251 39.2737 37.7439Z" fill="#CFDBEA"/>
<path d="M19.9972 33.4171C18.0418 34.333 15.8978 34.8124 13.724 34.8124C9.67459 34.8124 6.00014 33.1785 3.32358 30.5361C2.09092 33.0929 1.44147 36.5758 0.726077 37.7439C0.285842 37.9251 -0.0197827 38.3668 0.000998583 38.8771C0.026858 39.5102 0.569045 39.9999 1.20264 39.9999C6.07905 39.9999 16.4551 39.9139 22.5011 34.3227C21.6416 34.0965 20.8031 33.7945 19.9972 33.4171Z" fill="#CFDBEA"/>
<path d="M13.7242 32.4688C20.573 32.4688 26.193 26.9196 26.193 20C26.193 19.3528 26.7176 18.8281 27.3648 18.8281C28.012 18.8281 28.5367 19.3528 28.5367 20C28.5367 24.8753 26.1811 29.2002 22.5462 31.8994C23.7437 32.2747 24.9987 32.4688 26.2762 32.4688C33.1515 32.4688 38.7451 26.8753 38.7451 20C38.7451 9.55992 29.4778 5.15266 24.2777 2.66766C23.0448 2.07844 21.5251 1.35219 21.1533 0.96125C21.054 0.414531 20.5755 0 20.0002 0C19.4249 0 18.9465 0.414531 18.8472 0.96125C18.4754 1.35219 16.9556 2.07852 15.7227 2.66766C8.68709 6.02984 1.25537 10.4717 1.25537 20C1.25537 26.8753 6.84889 32.4688 13.7242 32.4688Z" fill="#CFDBEA"/>
</g>
<defs>
<clipPath id="clip0_2_1331">
<rect width="40" height="40" fill="white"/>
</clipPath>
</defs>
</svg>
