<svg width="40" height="40" viewBox="0 0 40 40" fill="none" xmlns="http://www.w3.org/2000/svg">
<g clip-path="url(#clip0_2_1204)">
<path d="M30.7943 16.0568L23.9033 9.16556C23.3712 8.63344 22.9685 8.0207 22.6923 7.3667C19.6263 9.13603 15.8466 11.3333 12.5858 14.3039C9.26176 17.3323 7.93736 19.7602 6.97461 23.2771L16.6826 32.9851C20.1995 32.0224 22.6275 30.698 25.6557 27.3739C28.6256 24.1139 30.8225 20.3354 32.5916 17.2698C31.9282 16.989 31.3186 16.581 30.7943 16.0568Z" fill="#CFDBEA"/>
<path d="M38.1758 6.86465L39.0155 6.02503C40.3281 4.71243 40.3281 2.57676 39.0155 1.26416L38.7499 0.998611C37.4373 -0.31399 35.3016 -0.31399 33.989 0.998611L33.1494 1.83823L38.1758 6.86465Z" fill="#CFDBEA"/>
<path d="M4.63788 24.255C4.30459 23.9217 3.8024 23.8163 3.36731 23.9976C2.78089 24.2422 2.24221 24.6012 1.77939 25.0641L1.14071 25.7027C1.01586 25.8275 0.914298 25.9756 0.854532 26.1417C0.695232 26.5847 0.8125 27.0594 1.12696 27.3737L12.5716 38.8183C12.6965 38.9431 12.8445 39.0449 13.0106 39.1048C13.4537 39.2645 13.9287 39.1471 14.2433 38.8326L14.8956 38.1801C15.3584 37.7173 15.7174 37.1786 15.962 36.5922C16.1434 36.1572 16.0379 35.6549 15.7046 35.3217L4.63788 24.255Z" fill="#CFDBEA"/>
<path d="M30.5331 2.53594C29.9039 1.90679 29.0674 1.5603 28.1776 1.5603C27.2879 1.5603 26.4514 1.90679 25.8223 2.53594L25.5609 2.79728C24.2622 4.09605 24.2623 6.20929 25.5609 7.50806L32.4518 14.399C33.1013 15.0484 33.9542 15.373 34.8072 15.373C35.6602 15.373 36.5132 15.0484 37.1626 14.399L37.4239 14.1376C38.7227 12.8389 38.7227 10.7256 37.4239 9.42685L30.5331 2.53594Z" fill="#CFDBEA"/>
<path d="M1.17286 39.9861C1.78583 39.9861 2.3731 39.4471 2.34474 38.8142C2.3163 38.1793 1.82982 37.6423 1.17286 37.6423C0.559893 37.6423 -0.0273722 38.1813 0.000987133 38.8142C0.0294246 39.4491 0.515831 39.9861 1.17286 39.9861Z" fill="#CFDBEA"/>
<path d="M6.69728 38.9917C7.31024 38.9917 7.89751 38.4527 7.86915 37.8198C7.84071 37.1849 7.35423 36.6479 6.69728 36.6479C6.08431 36.6479 5.49704 37.1869 5.5254 37.8198C5.55384 38.4547 6.04032 38.9917 6.69728 38.9917Z" fill="#CFDBEA"/>
<path d="M2.16749 34.4617C2.78046 34.4617 3.36773 33.9227 3.33937 33.2898C3.31093 32.6549 2.82444 32.1179 2.16749 32.1179C1.55452 32.1179 0.967257 32.6569 0.995616 33.2898C1.02405 33.9247 1.51046 34.4617 2.16749 34.4617Z" fill="#CFDBEA"/>
</g>
<defs>
<clipPath id="clip0_2_1204">
<rect width="40" height="40" fill="white"/>
</clipPath>
</defs>
</svg>
