<svg width="40" height="40" viewBox="0 0 40 40" fill="none" xmlns="http://www.w3.org/2000/svg">
<path d="M6.36665 36.6667H17.66C15.2533 35.74 13.0867 34.3333 11.1933 32.4467C10.62 31.8533 10.4533 31.0067 10.7533 30.2733C11.0533 29.5133 11.78 29.0267 12.6 29.0267C13.3867 29.0133 14.1733 28.98 14.96 28.92V20C14.96 18.9 15.86 18 16.96 18H23.22L23.0267 14.56C22.98 13.5 22.1 12.6667 21.0333 12.6667H18.96V10H9.62665V12.6667H7.55332C6.48665 12.6667 5.61332 13.5 5.55999 14.5533L4.47999 32.6667L4.37332 34.5533C4.33999 35.1067 4.53332 35.6333 4.91332 36.04C5.28665 36.44 5.81999 36.6667 6.36665 36.6667Z" fill="#CFDBEA"/>
<path d="M16.2935 19.9999V28.7799C18.7868 28.4933 21.2935 27.9399 23.7868 27.1199L23.2935 19.3333H16.9601C16.5935 19.3333 16.2935 19.6333 16.2935 19.9999Z" fill="#CFDBEA"/>
<path d="M11.9864 30.7733C11.8864 31.02 11.9464 31.3066 12.1331 31.5C15.5864 34.9333 19.9798 36.6666 25.2198 36.6666C25.7731 36.6666 26.3331 36.6466 26.8998 36.6066C29.0264 36.4666 30.7264 34.8666 31.0264 32.84C32.1331 32.7533 34.3931 32.3333 35.5398 30.3333C35.7198 30.0133 35.6131 29.6066 35.2931 29.42C34.9731 29.24 34.5664 29.3466 34.3798 29.6666C33.5864 31.06 31.9198 31.4133 31.0264 31.4933C30.8464 30.3333 30.2131 29.3066 29.2198 28.6066C28.0331 27.7666 26.5664 27.56 25.1931 28.0533C21.0131 29.5333 16.7731 30.3066 12.5998 30.36C12.3264 30.36 12.0864 30.5266 11.9864 30.7733Z" fill="#CFDBEA"/>
<path d="M7.62663 8.66659H20.96C21.3266 8.66659 21.6266 8.36659 21.6266 7.99992C21.6266 5.65325 19.8866 3.70659 17.6266 3.38659V5.33325C17.6266 5.69992 17.3266 5.99992 16.96 5.99992C16.5933 5.99992 16.2933 5.69992 16.2933 5.33325V3.33325H14.96V5.33325C14.96 5.69992 14.66 5.99992 14.2933 5.99992C13.9266 5.99992 13.6266 5.69992 13.6266 5.33325V3.33325H12.2933V5.33325C12.2933 5.69992 11.9933 5.99992 11.6266 5.99992C11.26 5.99992 10.96 5.69992 10.96 5.33325V3.38659C8.69996 3.70659 6.95996 5.65325 6.95996 7.99992C6.95996 8.36659 7.25996 8.66659 7.62663 8.66659Z" fill="#CFDBEA"/>
</svg>
