<svg width="40" height="40" viewBox="0 0 40 40" fill="none" xmlns="http://www.w3.org/2000/svg">
<g clip-path="url(#clip0_2_1296)">
<path d="M37.7779 16.7686C38.598 14.5764 38.9754 12.2861 38.8995 9.9603C38.8097 7.2228 38.1115 5.08936 37.6687 3.99381L32.2397 9.4228C33.5552 14.6794 34.1543 19.183 34.0218 22.8165C34.0196 22.8775 34.0168 22.9368 34.0146 22.9955C35.6965 21.0444 36.9583 18.9569 37.7779 16.7686ZM30.2902 11.3723L26.486 15.1765C28.0309 21.3574 28.097 25.7901 27.8958 28.3685C29.1398 27.5001 30.2725 26.619 31.2916 25.7252C31.6307 24.4052 32.3134 20.1373 30.2902 11.3723ZM6.53891 20.9962C5.83789 22.4552 5.14852 23.9958 4.47195 25.6166C6.72453 25.0663 9.87766 24.6053 13.2901 25.0475L17.025 21.3126C10.5299 20.2392 7.52203 20.7368 6.53891 20.9962ZM12.767 28.8955L1.66242 40.0001C2.77016 39.6903 6.69742 38.5493 11.6216 36.6408L11.6221 36.6403C12.138 35.0305 12.8601 32.1583 12.767 28.8955ZM3.35977 28.379C1.45078 33.3026 0.309766 37.2299 0 38.3376L11.1045 27.2331C7.84172 27.14 4.96906 27.8626 3.35977 28.379ZM18.6875 22.975L14.9526 26.7099C15.3948 30.1223 14.9338 33.2755 14.3834 35.528C16.0043 34.8514 17.5448 34.1621 19.0039 33.4611C19.2633 32.478 19.7609 29.4701 18.6875 22.975ZM9.94305 14.6905C9.23375 15.8487 8.53438 17.0844 7.84508 18.3955C9.96195 18.1872 13.4841 18.2326 19.0533 19.2844L22.8708 15.4669C15.5012 13.8227 11.1223 14.4544 9.94305 14.6905ZM24.5321 17.1304L20.7157 20.9468C21.7675 26.5159 21.8129 30.0381 21.6045 32.155C22.9145 31.4667 24.1492 30.7674 25.3068 30.0587C25.5373 28.875 26.1624 24.4529 24.5321 17.1304ZM14.2781 8.70514C13.3832 9.7253 12.5004 10.8586 11.6315 12.1043C14.2099 11.9031 18.6426 11.969 24.8235 13.514L28.6277 9.70983C19.8363 7.67889 15.5809 8.36764 14.2781 8.70514ZM30.0398 1.10061C27.714 1.02467 25.4237 1.40209 23.2315 2.22217C21.0431 3.04178 18.9557 4.30358 17.0045 5.98538C17.0633 5.98319 17.1226 5.98038 17.1835 5.97819C20.817 5.84577 25.3206 6.44475 30.5773 7.7603L36.0062 2.33131C34.9107 1.88858 32.7773 1.19038 30.0398 1.10061Z" fill="#CFDBEA"/>
<path d="M39.656 2.00654L37.6688 3.99373C37.4699 3.50217 37.3224 3.21959 37.3042 3.18467C37.1939 2.97686 37.0232 2.80615 36.8154 2.69592C36.7805 2.67764 36.4979 2.53021 36.0063 2.33131L37.9935 0.344121C38.4524 -0.114707 39.1971 -0.114707 39.656 0.344121C40.1148 0.802949 40.1148 1.54771 39.656 2.00654Z" fill="#CFDBEA"/>
</g>
<defs>
<clipPath id="clip0_2_1296">
<rect width="40" height="40" fill="white"/>
</clipPath>
</defs>
</svg>
