<svg width="40" height="40" viewBox="0 0 40 40" fill="none" xmlns="http://www.w3.org/2000/svg">
<path d="M18.4551 29.0322H21.0414V30.972H18.4551V29.0322Z" fill="#CFDBEA"/>
<path d="M18.4551 25.7998H21.0414V27.7393H18.4551V25.7998Z" fill="#CFDBEA"/>
<path d="M18.4551 32.2649H21.0414V34.2047H18.4551V32.2649Z" fill="#CFDBEA"/>
<path d="M18.4551 22.5671H21.0414V24.5067H18.4551V22.5671Z" fill="#CFDBEA"/>
<path d="M21.0414 20.8413L20.786 20.5433C20.3923 20.4403 20.0337 20.2329 19.7483 19.9434C19.4635 20.2327 19.1062 20.4398 18.7137 20.5428L18.4551 20.8419V21.2738H21.0414V20.8413Z" fill="#CFDBEA"/>
<path d="M17.1621 18.3643C17.1827 18.8704 17.5892 19.2755 18.0957 19.2943C18.6018 19.3128 19.0369 18.9388 19.0948 18.4355L19.0895 18.3678V18.3643C19.0829 18.2657 19.0772 18.1867 19.0664 18.1194C18.9371 17.6548 18.4864 17.3559 18.0081 17.4174C17.5302 17.4788 17.1697 17.8823 17.1621 18.3643Z" fill="#CFDBEA"/>
<path d="M26.254 13.2632C24.7881 13.363 23.3903 13.9183 22.2559 14.8519C22.3786 15.3179 22.3573 15.8107 22.1948 16.2643C22.3374 16.32 22.4738 16.3902 22.6018 16.4742C24.4134 16.327 26.2112 16.889 27.6168 18.0411H33.3711C33.5691 18.0379 33.754 17.9423 33.8708 17.7827C34.0131 17.5962 34.0594 17.3538 33.9955 17.1284C33.3095 14.6649 30.847 13.1934 27.4099 13.1934C27.0233 13.1889 26.6372 13.2124 26.254 13.2632Z" fill="#CFDBEA"/>
<path d="M22.3561 20.3888L29.0064 28.166C29.1408 28.3237 29.3429 28.4074 29.5494 28.391C29.7446 28.3809 29.9231 28.2788 30.0305 28.1156C31.3527 26.0836 30.8064 23.308 28.5681 20.6925C28.1033 20.1437 27.583 19.6438 27.0163 19.2011C26.0285 18.3687 24.8108 17.8562 23.5252 17.7322C23.8559 18.7862 23.3551 19.9219 22.354 20.3888H22.3561Z" fill="#CFDBEA"/>
<path d="M19.7281 16.7481C19.7519 16.7481 19.7689 16.7435 19.7929 16.7421C20.0772 16.4672 20.4292 16.272 20.813 16.1759C21.0801 15.7831 21.1094 15.2754 20.8901 14.8547C20.6704 14.4338 20.2371 14.1674 19.7624 14.1617C19.4168 14.158 19.0845 14.2924 18.8387 14.5355C18.5933 14.7783 18.4551 15.1095 18.4551 15.4549C18.4565 15.7135 18.5368 15.966 18.6853 16.1779C19.0712 16.2743 19.4248 16.4711 19.7107 16.7481H19.7281Z" fill="#CFDBEA"/>
<path d="M22.3343 18.3643C22.3343 18.9001 21.9004 19.3343 21.3648 19.3343C20.829 19.3343 20.395 18.9001 20.395 18.3643C20.395 17.8287 20.829 17.3948 21.3648 17.3948C21.9004 17.3948 22.3343 17.8287 22.3343 18.3643Z" fill="#CFDBEA"/>
<path d="M13.9145 12.0192C15.3787 12.1773 16.7751 12.7184 17.9639 13.5879C18.3056 13.2618 18.7306 13.0361 19.1921 12.9347C19.1966 12.9056 19.1987 12.8793 19.2033 12.85C18.892 11.4877 18.2752 10.2135 17.3995 9.12476C15.2928 6.40336 12.6868 5.30427 10.4284 6.18683C10.246 6.2587 10.1087 6.4132 10.0583 6.60248C10.0018 6.8023 10.0439 7.01699 10.1716 7.18041L13.9145 12.0192Z" fill="#CFDBEA"/>
<path d="M12.4854 19.1972C11.9162 19.641 11.3943 20.1418 10.9279 20.6921C8.69054 23.3061 8.14741 26.0815 9.46737 28.1149C9.57494 28.2774 9.75301 28.3788 9.94756 28.3891C10.1545 28.4038 10.3566 28.32 10.4918 28.163L17.1411 20.3888C16.3654 20.0121 15.8722 19.2268 15.8692 18.3643C15.8722 18.1501 15.9063 17.937 15.9699 17.7322C14.6868 17.856 13.4714 18.3669 12.4854 19.1972Z" fill="#CFDBEA"/>
<path d="M6.35232 18.0412H11.8794C13.2854 16.8888 15.0835 16.3266 16.8953 16.4733C17.0235 16.39 17.1596 16.32 17.302 16.2644C17.123 15.7581 17.1159 15.2069 17.2812 14.6961C16.1814 13.863 14.8637 13.3665 13.4872 13.2665C13.4527 13.2628 13.4184 13.2562 13.3845 13.2473C13.029 13.2084 12.6711 13.19 12.3131 13.1923C8.87688 13.1923 6.41412 14.6638 5.72679 17.1284C5.66476 17.3545 5.7126 17.5965 5.85611 17.7819C5.97215 17.9412 6.15548 18.0371 6.35232 18.0412Z" fill="#CFDBEA"/>
<path d="M20.4935 12.9336C20.4935 12.9496 20.4935 12.9625 20.4878 12.9789C20.9238 13.1112 21.317 13.3566 21.6276 13.6901C22.8405 12.7608 24.2859 12.184 25.8049 12.0224L29.549 7.17932C29.6765 7.0175 29.719 6.80418 29.6634 6.60574C29.6131 6.41394 29.4751 6.25784 29.291 6.18437C27.4103 5.44783 25.2877 6.09304 23.4129 7.9067L23.4088 7.91128C23.0181 8.29008 22.6546 8.69657 22.322 9.12733C21.4225 10.2351 20.7959 11.5388 20.4935 12.9336Z" fill="#CFDBEA"/>
<path d="M19.8581 10.7165C20.2436 9.86897 20.7272 9.06972 21.3001 8.33524C21.6205 7.92073 21.9661 7.52591 22.3342 7.15283C22.3353 6.7928 22.317 6.433 22.2792 6.07503C22.271 6.04413 22.2651 6.01278 22.2618 5.98073C22.1623 4.22636 21.3964 2.57612 20.1207 1.36763C19.9071 1.18475 19.5926 1.18475 19.3789 1.36763C18.1026 2.57589 17.3365 4.22613 17.2372 5.98073C17.2338 6.013 17.2281 6.04505 17.2198 6.07618C17.1901 6.33893 17.1756 6.62915 17.1699 6.93929C17.622 7.37348 18.0413 7.83971 18.4247 8.33524C18.9939 9.07063 19.4748 9.86966 19.8581 10.7165Z" fill="#CFDBEA"/>
<path d="M30.8475 37.4371H21.0415V35.4978H18.4552V37.4371H5.52452C5.16746 37.4371 4.87793 37.7267 4.87793 38.0837C4.87793 38.4408 5.16746 38.7303 5.52452 38.7303H30.8475C31.2046 38.7303 31.4941 38.4408 31.4941 38.0837C31.4941 37.7267 31.2046 37.4371 30.8475 37.4371Z" fill="#CFDBEA"/>
<path d="M33.9724 37.4373H33.3258C32.9687 37.4373 32.6792 37.7268 32.6792 38.0838C32.6792 38.4409 32.9687 38.7304 33.3258 38.7304H33.9724C34.3294 38.7304 34.619 38.4409 34.619 38.0838C34.619 37.7268 34.3294 37.4373 33.9724 37.4373Z" fill="#CFDBEA"/>
</svg>
