<svg width="40" height="40" viewBox="0 0 40 40" fill="none" xmlns="http://www.w3.org/2000/svg">
<g clip-path="url(#clip0_2_1323)">
<path d="M29.3466 13.6943C27.9328 13.6943 26.4806 14.0377 25.0216 14.716C24.8568 11.9047 23.6616 9.70177 22.6474 8.31272C21.4668 6.69571 20.2947 5.82072 20.2454 5.78432C20.0996 5.67658 19.9005 5.67619 19.7542 5.78432C19.7049 5.82072 18.5329 6.69571 17.3522 8.31272C16.338 9.70177 15.1428 11.9048 14.978 14.716C13.519 14.0377 12.0668 13.6943 10.653 13.6943C7.24798 13.6943 5.24652 15.6576 5.16293 15.7412C5.08551 15.8187 5.04199 15.9237 5.04199 16.0333C5.04199 16.1047 5.05277 17.8056 5.99167 19.6735C6.80603 21.2936 8.48758 23.3237 11.9136 24.1042C10.5448 25.7892 9.82764 27.9487 9.8317 30.3971C9.83514 32.4398 10.331 33.9508 10.3521 34.0141C10.4083 34.1828 10.5662 34.2966 10.744 34.2966C10.8206 34.2966 12.6443 34.2897 14.7421 33.6877C17.2101 32.9794 19.0093 31.7336 19.9997 30.0592C20.9901 31.7336 22.7893 32.9795 25.2573 33.6877C27.355 34.2897 29.1787 34.2966 29.2554 34.2966C29.4333 34.2966 29.5912 34.1828 29.6473 34.0141C29.6685 33.9508 30.1643 32.4398 30.1677 30.3971C30.1718 27.9487 29.4546 25.7892 28.0859 24.1042C31.5118 23.3237 33.1934 21.2936 34.0077 19.6735C34.9466 17.8056 34.9574 16.1047 34.9574 16.0333C34.9574 15.9237 34.9139 15.8186 34.8365 15.7412C34.753 15.6576 32.751 13.6943 29.3466 13.6943ZM19.9998 24.9217C18.1475 24.9217 16.6405 23.4147 16.6405 21.5624C16.6405 19.7101 18.1475 18.2031 19.9998 18.2031C21.8521 18.2031 23.3591 19.7101 23.3591 21.5624C23.3591 23.4147 21.8522 24.9217 19.9998 24.9217Z" fill="#CFDBEA"/>
<path d="M38.2782 11.465L35.2256 13.0863C35.9547 13.5626 36.3883 13.9781 36.4939 14.0838C36.7051 14.295 36.877 14.5347 37.0076 14.7937L39.3775 13.5349C39.9491 13.2313 40.1664 12.5219 39.8628 11.9502C39.5593 11.3787 38.8496 11.1615 38.2782 11.465Z" fill="#CFDBEA"/>
<path d="M0.622385 31.4649C0.0508295 31.7685 -0.166434 32.4779 0.137157 33.0496C0.442231 33.624 1.15285 33.837 1.72183 33.5348L7.48895 30.4717C7.4827 29.5066 7.57074 28.5773 7.75152 27.6785L0.622385 31.4649Z" fill="#CFDBEA"/>
<path d="M0.622385 26.4648C0.0508295 26.7684 -0.166434 27.4779 0.137157 28.0495C0.442231 28.6239 1.15285 28.8369 1.72183 28.5347L8.1062 25.1438C7.28778 24.6831 6.59739 24.1553 6.01615 23.6001L0.622385 26.4648Z" fill="#CFDBEA"/>
<path d="M32.9328 11.958L39.3777 8.53495C39.9493 8.23136 40.1665 7.52192 39.8629 6.95028C39.5593 6.37865 38.8497 6.16146 38.2783 6.46505L29.0728 11.3543C30.405 11.3215 31.6993 11.5245 32.9328 11.958Z" fill="#CFDBEA"/>
<path d="M20 22.5781C20.5609 22.5781 21.0156 22.1234 21.0156 21.5625C21.0156 21.0016 20.5609 20.5469 20 20.5469C19.4391 20.5469 18.9844 21.0016 18.9844 21.5625C18.9844 22.1234 19.4391 22.5781 20 22.5781Z" fill="#CFDBEA"/>
</g>
<defs>
<clipPath id="clip0_2_1323">
<rect width="40" height="40" fill="white"/>
</clipPath>
</defs>
</svg>
