<svg width="38" height="38" viewBox="0 0 38 38" fill="none" xmlns="http://www.w3.org/2000/svg">
<path fill-rule="evenodd" clip-rule="evenodd" d="M18.0049 31.0366C18.3469 31.1584 18.6874 31.2193 19.0264 31.2193C19.3654 31.2193 19.7084 31.1584 20.0556 31.0366C20.4027 30.9148 20.7061 30.724 20.966 30.4642L23.2161 28.4211C25.9748 25.9324 28.4756 23.4392 30.7187 20.9414C32.9617 18.4435 34.0833 15.7686 34.0833 12.9166C34.0833 10.6695 33.3256 8.78832 31.8103 7.273C30.2949 5.75767 28.4137 5 26.1666 5C24.8898 5 23.6287 5.29434 22.3834 5.88303C21.138 6.47171 20.0241 7.42781 19.0416 8.75131C18.0591 7.42781 16.9452 6.47171 15.6999 5.88303C14.4545 5.29434 13.1934 5 11.9166 5C9.66953 5 7.78832 5.75767 6.27299 7.273C4.75766 8.78832 4 10.6695 4 12.9166C4 15.7382 5.10275 18.3837 7.30826 20.853C9.51376 23.3224 12.0202 25.837 14.8276 28.3967L17.102 30.4642C17.3619 30.724 17.6628 30.9148 18.0049 31.0366Z" fill="#6A42DB"/>
<path d="M18.9849 31.2076C18.6459 31.2076 18.3054 31.1467 17.9634 31.0249C17.6213 30.9031 17.3204 30.7123 17.0605 30.4524L14.7861 28.385C11.9787 25.8253 9.47226 23.3107 7.26675 20.8413C5.06125 18.3719 3.9585 15.7265 3.9585 12.9049C3.9585 10.6578 4.71616 8.77661 6.23149 7.26128C7.74682 5.74595 9.62803 4.98828 11.8751 4.98828C13.1519 4.98828 14.413 5.28262 15.6584 5.87131C16.9037 6.45999 18.0176 7.41609 19.0001 8.73959C19.9826 7.41609 21.0965 6.45999 22.3419 5.87131C23.5872 5.28262 24.8483 4.98828 26.1251 4.98828C28.3722 4.98828 30.2534 5.74595 31.7688 7.26128C33.2841 8.77661 34.0418 10.6578 34.0418 12.9049C34.0418 15.7569 32.9202 18.4318 30.6772 20.9296C28.4341 23.4275 25.9333 25.9207 23.1746 28.4093L20.9245 30.4524C20.6646 30.7123 20.3612 30.9031 20.0141 31.0249C19.6669 31.1467 19.3239 31.2076 18.9849 31.2076ZM17.8614 11.145C17.0047 9.83975 16.103 8.88315 15.156 8.2752C14.209 7.66723 13.1154 7.36324 11.8751 7.36324C10.2918 7.36324 8.97235 7.89102 7.91679 8.94658C6.86123 10.0021 6.33346 11.3216 6.33346 12.9049C6.33346 14.1756 6.74299 15.5042 7.56204 16.8906C8.3811 18.2771 9.40924 19.6553 10.6465 21.0255C11.8837 22.3957 13.224 23.7344 14.6672 25.0417C16.1105 26.349 17.4482 27.5639 18.6804 28.6865C18.7717 28.7677 18.8783 28.8083 19.0001 28.8083C19.1219 28.8083 19.2285 28.7677 19.3199 28.6865C20.5521 27.5639 21.8898 26.349 23.333 25.0417C24.7763 23.7344 26.1165 22.3957 27.3538 21.0255C28.591 19.6553 29.6191 18.2771 30.4382 16.8906C31.2573 15.5042 31.6668 14.1756 31.6668 12.9049C31.6668 11.3216 31.139 10.0021 30.0835 8.94658C29.0279 7.89102 27.7085 7.36324 26.1251 7.36324C24.8848 7.36324 23.7912 7.66723 22.8443 8.2752C21.8973 8.88315 20.9955 9.83975 20.1389 11.145C20.0049 11.348 19.8364 11.5002 19.6335 11.6017C19.4304 11.7032 19.2193 11.754 19.0001 11.754C18.7809 11.754 18.5698 11.7032 18.3668 11.6017C18.1638 11.5002 17.9953 11.348 17.8614 11.145Z" fill="#6A42DB"/>
</svg>
